<?xml version="1.0" encoding="UTF-8"?>
<svg version="1.1" xmlns="http://www.w3.org/2000/svg" width="1152" height="648">
<path d="M0 0 C380.16 0 760.32 0 1152 0 C1152 213.84 1152 427.68 1152 648 C771.84 648 391.68 648 0 648 C0 434.16 0 220.32 0 0 Z " fill="#7E5721" transform="translate(0,0)"/>
<path d="M0 0 C380.16 0 760.32 0 1152 0 C1152 163.02 1152 326.04 1152 494 C1144.74 494 1137.48 494 1130 494 C1119.733982 495.6780991 1109.95492998 499.75813207 1101.43359375 505.828125 C1099 507 1099 507 1096.28125 506.453125 C1095.3634375 506.05609375 1094.445625 505.6590625 1093.5 505.25 C1080.09216562 499.60063158 1062.70273948 500.54000771 1049 505 C1043.78028403 507.27273555 1038.88102719 510.0831452 1034 513 C1032.54980469 513.86625 1032.54980469 513.86625 1031.0703125 514.75 C1030.38710937 515.1625 1029.70390625 515.575 1029 516 C1027.8553125 514.515 1027.8553125 514.515 1026.6875 513 C1017.13623317 501.89805691 1001.30097763 493.32410416 986.70776367 491.61425781 C983.31604463 491.46600225 979.95691212 491.44461444 976.5625 491.5 C974.77972656 491.51812744 974.77972656 491.51812744 972.9609375 491.53662109 C960.74399825 491.81382062 951.83016175 494.52535031 941.2421875 500.73046875 C939 502 939 502 936 503 C933.57037202 501.97219374 931.27897211 500.88732716 928.9375 499.6875 C913.8671704 492.38105405 896.00044657 491.57213166 880 497 C873.38966378 499.73639257 866.95267388 503.03155075 861 507 C859.07397461 507.30297852 859.07397461 507.30297852 856.90234375 507.37890625 C856.10570312 507.41306641 855.3090625 507.44722656 854.48828125 507.48242188 C853.64652344 507.50884766 852.80476562 507.53527344 851.9375 507.5625 C846.68486404 507.74728585 841.66926454 507.98625444 836.5 509 C831.20800393 509.60532364 827.96831413 506.86617794 823.78125 503.9140625 C816.59636318 498.96940724 809.09758134 496.49409815 800.53125 495.1640625 C798 494 798 494 796.39453125 490.89453125 C795.92746183 489.59715328 795.46272528 488.2989337 795 487 C790.75671275 477.6275421 786.35098521 468.35098521 779 461 C778.98828125 458.9765625 778.98828125 458.9765625 779.3125 456.625 C779.46138672 455.46871094 779.46138672 455.46871094 779.61328125 454.2890625 C779.97387031 452.15466662 780.44160166 450.09041429 781 448 C781.969375 447.97421875 782.93875 447.9484375 783.9375 447.921875 C800.73259351 447.29137136 818.85736118 444.09721603 831.4375 432 C834.59687421 429.01465912 834.59687421 429.01465912 838.4375 428.875 C845.75210084 431.18487395 845.75210084 431.18487395 848.7890625 432.28125 C854.26713401 434.06210717 859.47567186 434.19252163 865.1875 434.1875 C866.46234253 434.18737915 866.46234253 434.18737915 867.76293945 434.18725586 C874.458062 434.12635031 880.69480101 433.38410136 887.08984375 431.328125 C889.125 430.8125 889.125 430.8125 893 431 C895.13383041 432.95133176 896.81036896 435.10982511 898.6015625 437.37890625 C903.2000462 442.40428502 909.1702052 445.57516783 915 449 C915.69867187 449.44472656 916.39734375 449.88945312 917.1171875 450.34765625 C929.20137731 457.41019385 947.94624033 457.84395565 961.25 454.8125 C971.61645879 451.79246119 980.45582985 447.61914048 989 441 C990.23556641 440.08541016 990.23556641 440.08541016 991.49609375 439.15234375 C994.3321615 436.71447584 996.40070078 434.12895049 998.625 431.125 C999.75808594 429.61292969 999.75808594 429.61292969 1000.9140625 428.0703125 C1002.90962798 425.1330195 1004.44607132 422.18596928 1006 419 C1006.79994385 419.02094727 1007.5998877 419.04189453 1008.42407227 419.06347656 C1031.77530212 419.59453008 1050.89702548 418.42904165 1069.375 402.6875 C1081.35772873 391.17622289 1089.78554851 375.73902953 1090.30078125 358.91796875 C1090.31527209 356.67452257 1090.3189357 354.43098375 1090.3125 352.1875 C1090.32861328 351.07568359 1090.34472656 349.96386719 1090.36132812 348.81835938 C1090.36565271 341.42764241 1089.32976524 335.01397729 1087 328 C1087.7321875 327.45730469 1088.464375 326.91460937 1089.21875 326.35546875 C1100.44947727 316.84405225 1107.84633666 302.42517145 1110 288 C1111.41140921 267.17546101 1108.91533104 252.22156196 1097 235 C1096.23816406 234.15566406 1095.47632813 233.31132812 1094.69140625 232.44140625 C1093 230 1093 230 1093.37939453 227.73217773 C1093.58419434 226.83055908 1093.78899414 225.92894043 1094 225 C1094.27151903 220.50289577 1094.27723555 216.00444544 1094.3125 211.5 C1094.34150391 210.29601562 1094.37050781 209.09203125 1094.40039062 207.8515625 C1094.46968388 197.93729625 1093.12460874 188.30244679 1087.4375 179.9375 C1085.8944838 177.13147441 1085.93904771 176.22609398 1086.79296875 173.05859375 C1087.6587027 170.98946423 1088.58222078 168.9432582 1089.5703125 166.9296875 C1093.38543597 159.11181154 1093.39977811 152.0670611 1093.4375 143.5 C1093.47037109 142.21351563 1093.50324219 140.92703125 1093.53710938 139.6015625 C1093.6327554 122.31571641 1086.38963841 107.50181302 1074.625 95.0625 C1061.10746896 82.41328259 1045.62941902 76.62716678 1027.4375 76.8125 C1026.23158203 76.81314453 1025.02566406 76.81378906 1023.78320312 76.81445312 C1018.38951753 76.84125775 1013.3140168 77.00321792 1008 78 C1007.5153125 77.09378906 1007.030625 76.18757813 1006.53125 75.25390625 C996.71506769 57.24890267 983.18605451 45.86081266 963.62890625 39.19140625 C943.98910567 34.25592777 924.80314151 39.23189479 907.67895508 48.88085938 C905.91767425 49.96878358 905.91767425 49.96878358 904.41674805 51.63867188 C903.94922119 52.08791016 903.48169434 52.53714844 903 53 C899.6540083 52.90440024 897.58154712 51.77527531 894.625 50.1875 C880.25948281 42.92493297 861.69439486 40.87829372 846.26757812 45.79711914 C844.42956954 46.45791169 842.61398746 47.18016075 840.80078125 47.90625 C838 49 838 49 835 49 C833.28641357 47.38161281 831.6292274 45.70328319 830 44 C825.51039256 39.51039256 820.8081476 36.65848864 815.1875 33.8125 C814.53612061 33.47951904 813.88474121 33.14653809 813.21362305 32.8034668 C803.96840944 28.27475758 795.47967444 26.45820684 785.1875 26.5625 C784.12942139 26.57079834 783.07134277 26.57909668 781.98120117 26.58764648 C764.15053321 26.97273738 748.90537476 34.75083074 736 47 C735.57187012 47.59917236 735.14374023 48.19834473 734.70263672 48.81567383 C731.16870527 53.6895285 731.16870527 53.6895285 727.78149414 54.58935547 C725.16772839 54.77182542 722.618841 54.7630367 720 54.6875 C701.06833351 54.9081107 685.1379349 61.62769107 671.69140625 75.01953125 C661.2449554 86.13756601 655.25062635 101.16050778 654.4375 116.25 C654.39431641 116.99507813 654.35113281 117.74015625 654.30664062 118.5078125 C654.20103275 120.338349 654.10005799 122.16915176 654 124 C653.21689453 124.32871094 653.21689453 124.32871094 652.41796875 124.6640625 C649.92621521 125.73756753 647.46146922 126.85870831 645 128 C644.13375 128.40089844 643.2675 128.80179688 642.375 129.21484375 C625.70581695 137.57366374 615.11421374 151.60383149 609 169 C603.85096383 187.14631834 606.65279774 206.74704424 615.62890625 223.16015625 C621.76605244 233.58108767 631.03917186 241.35944791 641 248 C640.85704109 249.39613065 640.71048442 250.79189308 640.5625 252.1875 C640.48128906 252.96480469 640.40007813 253.74210938 640.31640625 254.54296875 C640 257 640 257 639.484375 259.27734375 C636.48129022 276.15758642 641.04606317 291.69563902 648 307 C645.48025747 307.65035371 642.95934065 308.29537493 640.4375 308.9375 C639.73302734 309.11990234 639.02855469 309.30230469 638.30273438 309.49023438 C626.19823223 312.55819575 626.19823223 312.55819575 622.76953125 310.9609375 C622.12371094 310.43757813 621.47789062 309.91421875 620.8125 309.375 C615.6005674 305.53744689 610.04056932 303.24992866 604 301 C603.07574219 300.64421875 602.15148437 300.2884375 601.19921875 299.921875 C593.58881246 297.72888857 585.799688 297.86637373 577.9375 297.9375 C576.49600586 297.94426758 576.49600586 297.94426758 575.02539062 297.95117188 C572.68352578 297.96282294 570.34179819 297.97917975 568 298 C567.47212891 296.45892578 567.47212891 296.45892578 566.93359375 294.88671875 C561.52693695 279.53099564 553.56999467 268.46552519 542 257 C542.49628906 256.5875 542.99257813 256.175 543.50390625 255.75 C556.44469332 244.74910321 566.47323585 231.15627898 568.34277344 213.82177734 C569.66266812 192.62134922 566.21706727 175.01528931 552.3125 158.3125 C547.48243288 153.11088925 541.78205039 149.07634553 536 145 C537.4678349 141.19346165 539.16418025 137.5479829 540.9375 133.875 C548.38820104 117.49803122 549.7364503 99.63846946 544.24609375 82.3125 C537.1055503 63.33074187 525.49149773 51.46980256 507.4375 42.625 C491.8495569 36.42395694 472.77460955 35.09975281 457.17382812 41.78222656 C445.84341858 46.77313379 435.16049655 52.49680599 428.8125 63.5 C425.85542462 67.45105029 423.19348978 68.39611321 418.484375 69.203125 C403.1349711 70.89831165 403.1349711 70.89831165 396.890625 67.1171875 C394.8125 64.625 394.8125 64.625 392.9765625 61.83984375 C390.66982035 58.52561145 387.99043809 56.41537348 384.6875 54.1875 C384.13666748 53.81568604 383.58583496 53.44387207 383.01831055 53.06079102 C377.66176862 49.58447906 372.03027168 47.05690089 366 45 C364.98035156 44.63390625 363.96070313 44.2678125 362.91015625 43.890625 C357.65063213 42.433711 352.22791425 42.67133458 346.8125 42.6875 C345.75224609 42.67138672 344.69199219 42.65527344 343.59960938 42.63867188 C326.37268696 42.62817406 311.66576619 48.93080024 298.7734375 60.1640625 C293.67237415 65.38007939 289.26871197 71.46257605 286 78 C285.33097656 77.731875 284.66195313 77.46375 283.97265625 77.1875 C282.99167969 76.795625 282.01070313 76.40375 281 76 C279.82308594 75.525625 278.64617187 75.05125 277.43359375 74.5625 C276.10269098 74.03878976 274.77060606 73.51807611 273.4375 73 C272.73367188 72.72510742 272.02984375 72.45021484 271.3046875 72.16699219 C266.9890205 70.54763801 263.12338945 69.65049743 258.5 69.25 C253.65285001 68.60327783 251.85477696 67.30171275 248.875 63.4375 C248.24335938 62.54160156 247.61171875 61.64570312 246.9609375 60.72265625 C238.49084 48.96238143 223.87023013 41.07870022 209.734375 38.40625 C188.05840244 36.04819441 170.67317316 39.41990379 152.875 52.625 C147.1970823 57.30200272 143.1550501 62.97818826 139 69 C138.20722656 68.7834375 137.41445312 68.566875 136.59765625 68.34375 C129.01113601 66.53304462 122.27502671 65.93805698 114.45727539 66.24780273 C100.44291956 66.78274884 100.44291956 66.78274884 95.78125 64.25390625 C93.625 61.9375 93.625 61.9375 91.81640625 59.44921875 C85.59014913 51.05381398 71.18962865 44.60857459 61 43 C56.24739669 42.66840598 51.51287196 42.62986504 46.75 42.625 C45.50347656 42.60050781 44.25695313 42.57601562 42.97265625 42.55078125 C31.55900005 42.51500176 22.29746489 45.24736006 12.5 51 C11.62988281 51.495 11.62988281 51.495 10.7421875 52 C7.34241704 53.98708045 4.7448576 56.2052359 2 59 C1.34 59 0.68 59 0 59 C0 39.53 0 20.06 0 0 Z " fill="#AB7326" transform="translate(0,0)"/>
<path d="M0 0 C8.92677596 6.69508197 8.92677596 6.69508197 12.5625 11 C22.31221634 22.11401111 32.65104317 28.20860897 47 32 C47.58620117 32.18304688 48.17240234 32.36609375 48.77636719 32.5546875 C51.72622626 33.14543662 54.45509967 33.00054105 57.4609375 32.88671875 C82.92797124 32.19859517 82.92797124 32.19859517 92.2109375 37.4921875 C103.38826375 43.53483166 121.07391837 42.85653107 133 39.5 C135.02662071 38.7336757 137.02736545 37.89619047 139 37 C139.59184082 36.73687012 140.18368164 36.47374023 140.79345703 36.20263672 C153.96978709 30.21277945 163.53064336 21.7571561 172 10 C192.20111298 11.8538551 192.20111298 11.8538551 197.85253906 18.52661133 C199.53310314 20.80272449 201.16297781 23.11130603 202.78173828 25.43164062 C210.88286271 35.86082366 227.20634983 42.32214424 240 44 C261.13450769 45.2325278 279.10331983 40.94146831 295.9296875 27.453125 C301.61498501 22.16082041 305.73181841 15.43614685 310 9 C315.38421515 10.74601245 320.61970826 12.79133296 325.87890625 14.87890625 C330.57955926 16.5673761 334.5189027 17.10398246 339.5 16.859375 C357.78737541 16.40990487 357.78737541 16.40990487 363.04296875 20.67578125 C365.76057358 23.38571151 368.11296146 26.39523588 370.52099609 29.37890625 C379.63757872 39.37133092 395.33134384 42.42332417 408 45 C407.34 45.639375 406.68 46.27875 406 46.9375 C404.99944245 47.95778686 403.999521 48.97869767 403 50 C402.39542969 50.58523437 401.79085938 51.17046875 401.16796875 51.7734375 C387.31880104 66.0323439 383.05118828 84.8019825 382 104 C380.97261719 104.4125 379.94523437 104.825 378.88671875 105.25 C370.92377653 108.53707327 364.02423528 111.93426125 357.234375 117.30078125 C355 119 355 119 352.828125 119.98046875 C350.46624058 121.29767352 350.09404737 122.55943279 349 125 C347.88468698 126.50231319 346.73656934 127.98064406 345.5625 129.4375 C343.12362586 132.5165786 340.89415643 135.54595003 339 139 C338.53851563 138.63648438 338.07703125 138.27296875 337.6015625 137.8984375 C322.92689849 126.58792571 308.43967188 119.84632668 289.8125 119.75 C288.83474609 119.729375 287.85699219 119.70875 286.84960938 119.6875 C276.80531138 119.63439069 267.93810156 122.05101789 259 126.5625 C258.31921387 126.89749512 257.63842773 127.23249023 256.93701172 127.57763672 C252.20710254 130.03352964 248.85459594 132.82672878 245.125 136.625 C240.75234671 140.9383854 240.75234671 140.9383854 237.28125 141.22265625 C234.7045282 140.70352259 232.44683274 139.94783452 230 139 C212.14771804 134.19484033 194.35928221 139.516582 178.70825195 147.96826172 C176.74652567 149.1008054 176.74652567 149.1008054 174.203125 151.25390625 C172 153 172 153 169.1875 153 C165.98822345 151.9963054 163.23905819 150.69911971 160.27197266 149.16430664 C159.14734619 148.58797485 159.14734619 148.58797485 158 148 C157.32171143 147.64583008 156.64342285 147.29166016 155.94458008 146.92675781 C148.89948907 143.66441561 142.13545283 143.41582323 134.49536133 143.53344727 C132.4368453 143.56250924 130.38090119 143.55399691 128.32226562 143.54101562 C121.07349617 143.55172831 114.65538203 143.97434951 108 147 C106.89914063 147.49757813 105.79828125 147.99515625 104.6640625 148.5078125 C86.59222605 158.12444526 75.14448819 170.92170807 68 190 C66.80879249 194.03140062 66.24496011 197.80905201 66 202 C65.92007813 203.23105469 65.84015625 204.46210938 65.7578125 205.73046875 C65.17059809 219.38572035 68.05853146 231.641425 74.92578125 243.546875 C76 246 76 246 75.84375 248.03515625 C74.82302451 250.41212349 73.57626997 252.50414265 72.1875 254.6875 C62.56079164 270.4633259 59.51844639 287.42596974 63 305.625 C68.51525315 325.96730581 80.91805209 340.12581518 98.828125 350.6640625 C100.86907033 351.81289651 102.91737791 352.92909096 105 354 C104.75830078 355.64162109 104.75830078 355.64162109 104.51171875 357.31640625 C103.86429455 362.52444696 103.8160883 367.69500005 103.8125 372.9375 C103.80025391 373.87529297 103.78800781 374.81308594 103.77539062 375.77929688 C103.76427515 381.11102211 104.2871156 385.8219947 105.5793457 390.98803711 C106.1760245 393.84191407 106.00466254 396.42746729 105.6875 399.3125 C105.53861328 400.79169922 105.53861328 400.79169922 105.38671875 402.30078125 C105 405 105 405 104.49072266 406.90600586 C100.83018536 422.52611951 104.64613702 440.57007078 112.72900391 454.12109375 C122.95939902 470.26600886 138.22351445 481.3126871 156.83447266 485.63818359 C161.083314 486.3480802 165.32586939 486.38209859 169.625 486.375 C170.59268311 486.37411377 171.56036621 486.37322754 172.55737305 486.37231445 C180.64564708 486.23958726 187.39118658 484.81920178 195 482 C196.79046911 481.41300121 198.5819911 480.82919453 200.375 480.25 C201.57125 479.8375 202.7675 479.425 204 479 C205.62561151 480.45765165 207.25046934 481.91614386 208.875 483.375 C209.77992188 484.18710937 210.68484375 484.99921875 211.6171875 485.8359375 C213.10896183 487.19076205 214.57505435 488.57505435 216 490 C144.72 490 73.44 490 0 490 C0 328.3 0 166.6 0 0 Z " fill="#AA7124" transform="translate(0,158)"/>
<path d="M0 0 C8.64907605 5.13917359 17.66629108 7.93260563 27.4375 10.1875 C27.45167969 10.7959375 27.46585938 11.404375 27.48046875 12.03125 C28.37222287 28.42024457 34.68682108 43.71302917 45.99609375 55.60546875 C47.74909543 58.74566959 47.23340951 60.48719803 46.72636414 63.94258118 C46.24636522 67.67291133 46.23464068 71.39935276 46.19921875 75.15625 C46.18711113 76.41411316 46.18711113 76.41411316 46.17475891 77.6973877 C46.16100599 79.46555572 46.15024505 81.23374931 46.14233398 83.00195312 C46.13086992 84.77807619 46.11050752 86.55416634 46.08081055 88.33007812 C45.73499479 109.08675132 49.27657993 128.45993888 64.10766602 144.0559082 C75.56882157 155.52484062 90.58000423 164.19303285 107.0625 164.25 C110.92911867 164.46732751 112.78469881 164.61713445 115.7265625 167.1875 C117.05156401 168.91897607 118.32852739 170.6881215 119.55859375 172.48828125 C127.85468993 184.40637369 143.43618634 191.77440531 157.3046875 194.81640625 C161.12800517 195.26929301 164.90658812 195.33299137 168.75 195.3125 C169.88538208 195.31830078 169.88538208 195.31830078 171.04370117 195.32421875 C174.9417354 195.3175074 178.43810278 195.07040267 182.25 194.1875 C187.63671278 193.40606198 191.36825867 197.09650536 195.51171875 200.11328125 C209.30201677 209.88984767 227.23223619 210.7184687 243.5 208.5625 C251.71284262 206.99762053 260.23563917 203.83310802 266.75 198.53125 C270.99399415 195.40282675 274.99835834 195.49074965 280.125 195.5 C281.91288595 195.45242047 283.70065837 195.40035751 285.48828125 195.34375 C286.34373535 195.32054687 287.19918945 195.29734375 288.08056641 195.2734375 C298.91082739 194.87854918 310.07543307 191.74583763 318.97265625 185.37109375 C321.4375 184.1875 321.4375 184.1875 324.33203125 184.83984375 C325.35683594 185.28457031 326.38164063 185.72929688 327.4375 186.1875 C328.53449219 186.60128906 329.63148438 187.01507812 330.76171875 187.44140625 C331.87160156 187.87324219 332.98148438 188.30507813 334.125 188.75 C342.27892282 191.91940253 348.63402236 192.43518801 357.375 192.5 C358.64408203 192.52900391 359.91316406 192.55800781 361.22070312 192.58789062 C372.01243296 192.6598724 381.02976723 190.50289602 390.4375 185.125 C391.30375 184.63902344 392.17 184.15304687 393.0625 183.65234375 C395.46052094 182.22964035 395.46052094 182.22964035 397.625 180.50390625 C399.4375 179.1875 399.4375 179.1875 401.4375 179.1875 C402.48505745 180.33326596 403.47559717 181.5314356 404.4375 182.75 C414.03228532 193.96699645 429.59707947 202.0872265 444.33276367 203.45654297 C447.24880942 203.55150573 450.14546335 203.54874727 453.0625 203.5 C454.03445313 203.50322266 455.00640625 203.50644531 456.0078125 203.50976562 C465.65401225 203.43845635 473.29360127 201.68313298 481.8125 197.1875 C482.50988281 196.83171875 483.20726562 196.4759375 483.92578125 196.109375 C486.87312033 194.59327735 489.677578 193.027448 492.4375 191.1875 C496.67117056 191.45210441 500.37800494 192.464873 504.42578125 193.6953125 C510.50912656 195.37017998 516.34126839 195.73392841 522.625 195.875 C523.67236328 195.90916016 524.71972656 195.94332031 525.79882812 195.97851562 C528.34470465 196.05989067 530.89108059 196.12539221 533.4375 196.1875 C533.4375 202.7875 533.4375 209.3875 533.4375 216.1875 C321.2475 216.1875 109.0575 216.1875 -109.5625 216.1875 C-104.5625 211.1875 -104.5625 211.1875 -102.16796875 209.00390625 C-90.0832942 197.73919346 -82.54449133 182.80151586 -81.5625 166.1875 C-81.56983771 161.24403856 -81.72723959 156.30138732 -81.953125 151.36328125 C-82.11006021 143.89905032 -82.11006021 143.89905032 -79.25390625 140.1875 C-77.92166016 139.1975 -77.92166016 139.1975 -76.5625 138.1875 C-71.45115981 133.36331375 -68.25898436 128.10157318 -65.25 121.8125 C-64.91250732 121.11737305 -64.57501465 120.42224609 -64.22729492 119.70605469 C-57.47407199 104.98727297 -57.01194127 85.86279084 -62.30004883 70.61621094 C-66.06677533 60.76418247 -71.39200875 52.8481354 -78.64453125 45.24609375 C-80.5625 43.1875 -80.5625 43.1875 -82.5625 40.1875 C-81.82902344 39.63964844 -81.09554687 39.09179688 -80.33984375 38.52734375 C-67.55775954 27.75875241 -62.25825488 11.9053281 -58.5625 -3.8125 C-57.21671875 -3.48765625 -57.21671875 -3.48765625 -55.84375 -3.15625 C-42.45485864 -0.16864614 -30.14113238 0.51874512 -16.87719727 -3.47680664 C-9.73855446 -5.58693668 -6.09981073 -3.76378525 0 0 Z " fill="#AD752A" transform="translate(618.5625,431.8125)"/>
<path d="M0 0 C1.03167674 0.98880928 2.02725454 2.01566336 3 3.0625 C13.29341409 13.88948199 29.13573533 20.53837611 43.953125 21.16796875 C51.82766179 21.25269997 59.39100591 21.26021442 67 19 C68.08667969 18.68160156 69.17335938 18.36320312 70.29296875 18.03515625 C77.95956499 15.552082 83.9381148 12.35898009 90.28125 7.37890625 C93 6 93 6 96.1171875 6.65625 C98.33888764 7.69183923 100.49634353 8.72737338 102.625 9.9375 C116.92626726 17.07476796 133.53490672 15.94292965 149 14 C152.3203125 18.98046875 152.3203125 18.98046875 153 21 C152.28125 23.35546875 152.28125 23.35546875 151 26 C146.59762312 35.63186699 145.51871037 44.1786383 145.5 54.75 C145.49403809 55.8858252 145.48807617 57.02165039 145.48193359 58.19189453 C145.71239119 73.86985662 151.12792576 87.31971263 161.8125 98.90234375 C163.48955718 101.86477699 162.5947109 103.68724925 162 107 C161.7865267 111.4567484 161.81489345 115.91360123 161.8125 120.375 C161.80025391 121.56867188 161.78800781 122.76234375 161.77539062 123.9921875 C161.76478522 130.38371442 162.1644958 135.87924387 164 142 C164.07203285 144.95334666 163.64077308 146.31951704 161.61328125 148.47265625 C160.40690024 149.61939595 159.1956002 150.76097425 157.98046875 151.8984375 C154.31452999 155.78852636 151.75053831 160.4423798 149 165 C148.34 165.99 147.68 166.98 147 168 C146.05511719 167.84015625 145.11023438 167.6803125 144.13671875 167.515625 C132.76716553 165.9048669 120.25021843 165.86336684 109.27734375 169.34375 C107 170 107 170 103 170 C101.359375 168.4609375 101.359375 168.4609375 99.75 166.375 C90.6415207 155.46400058 75.32799952 147.08739038 61.05224609 145.71704102 C57.90400839 145.59883841 54.77512681 145.5903409 51.625 145.625 C50.57828125 145.61339844 49.5315625 145.60179687 48.453125 145.58984375 C33.24287376 145.64617801 19.05580825 150.31420879 7.6875 160.625 C3.6537474 164.01805932 3.6537474 164.01805932 0.87890625 163.94140625 C-1.25 163.1875 -1.25 163.1875 -3.48046875 162.1484375 C-16.28181233 156.31340647 -32.60154126 156.44265727 -46 160 C-47.33333333 160.33333333 -48.66666667 160.66666667 -50 161 C-54.06740289 154.71401371 -54.06740289 154.71401371 -53.76953125 151.55859375 C-52.97177901 148.90616877 -51.93853945 146.68601862 -50.625 144.25 C-42.51638037 128.5249024 -41.44844557 110.33967567 -46.6796875 93.45703125 C-52.00906394 79.50289472 -60.048558 68.08588405 -72.51953125 59.75390625 C-77.16013752 56.47259568 -77.16013752 56.47259568 -79 54 C-78.76953125 51.1875 -78.76953125 51.1875 -77.8125 48 C-76.0839613 41.64041802 -75.34318833 35.56791461 -75 29 C-74.11699219 28.6596875 -73.23398437 28.319375 -72.32421875 27.96875 C-60.07048586 23.01987399 -48.49588102 16.24382152 -41 5 C-38.15543868 4.68859539 -35.47467268 4.53959484 -32.625 4.5 C-23.79215591 4.20387301 -15.89661962 2.78058895 -7.5625 -0.25 C-4.37090851 -1.18412434 -3.09281949 -1.28238857 0 0 Z " fill="#AD7529" transform="translate(816,156)"/>
<path d="M0 0 C0.94875 0.825 1.8975 1.65 2.875 2.5 C3.52082031 3.04785156 4.16664063 3.59570312 4.83203125 4.16015625 C6.29887401 5.40499038 7.75439071 6.66327425 9.19921875 7.93359375 C26.50473478 22.60752718 44.78844829 25.25162049 66.8125 23.5 C68.54219325 23.33889015 70.27159593 23.17439753 72 23 C71.18595703 24.59714844 71.18595703 24.59714844 70.35546875 26.2265625 C61.96073597 43.08051273 57.62521707 60.56847868 63.02734375 79.13671875 C66.2388601 88.59070062 70.37940027 96.74607143 76 105 C76.99 106.485 76.99 106.485 78 108 C76.8140625 108.12375 75.628125 108.2475 74.40625 108.375 C57.58691336 110.40576363 41.10539693 116.49426968 30.20703125 130.265625 C29.80871094 130.83796875 29.41039062 131.4103125 29 132 C28.14712402 131.83918945 27.29424805 131.67837891 26.41552734 131.51269531 C20.51034804 130.62628527 14.58617144 130.77370247 8.625 130.75 C7.3359375 130.729375 6.046875 130.70875 4.71875 130.6875 C-5.19952779 130.64676785 -11.62722205 132.41272373 -20.140625 137.42578125 C-22 138 -22 138 -23.82421875 137.34765625 C-24.54222656 136.90292969 -25.26023437 136.45820312 -26 136 C-27.01191406 135.40445313 -28.02382813 134.80890625 -29.06640625 134.1953125 C-29.62924316 133.86088135 -30.19208008 133.5264502 -30.77197266 133.18188477 C-40.07968565 127.68787201 -49.6760314 122.87967076 -60.68359375 122.8671875 C-61.77607422 122.86589844 -62.86855469 122.86460937 -63.99414062 122.86328125 C-65.13044922 122.86714844 -66.26675781 122.87101563 -67.4375 122.875 C-69.13616211 122.86919922 -69.13616211 122.86919922 -70.86914062 122.86328125 C-72.50979492 122.86521484 -72.50979492 122.86521484 -74.18359375 122.8671875 C-75.17931396 122.86831543 -76.17503418 122.86944336 -77.20092773 122.87060547 C-79.90203192 122.99547117 -82.36887185 123.39445868 -85 124 C-85.18175781 122.85402344 -85.36351562 121.70804688 -85.55078125 120.52734375 C-85.80422102 118.99731849 -86.05815357 117.4673748 -86.3125 115.9375 C-86.43044922 115.18533203 -86.54839844 114.43316406 -86.66992188 113.65820312 C-87.29790181 109.93862966 -88.0448144 106.63197725 -89.6171875 103.19140625 C-90.89053099 100.25264459 -91.37048077 99.04591858 -90.8125 96 C-90.71582031 95.401875 -90.61914062 94.80375 -90.51953125 94.1875 C-90.08372279 92.352517 -89.53855041 90.54398671 -88.96875 88.74609375 C-84.85809004 72.85043689 -88.6736593 55.0897117 -96.37890625 40.98828125 C-97.80221084 38.36459929 -98.95861424 35.79257177 -100 33 C-95.69353451 26.81221171 -92.34607274 24.40653908 -85.02734375 22.8203125 C-74.38546512 19.93670668 -64.71301706 12.71301706 -57 5 C-53.04407344 5.31396243 -49.75516546 5.74827818 -46 7 C-30.13919991 8.29308897 -14.26617743 7.69008053 0 0 Z " fill="#AD7529" transform="translate(322,403)"/>
</svg>
